# xmcd
#
# Track frame offsets:
#	150
#	14655
#	28070
#	43175
#	64904
#	82016
#	93980
#	106346
#	120487
#	137987
#	153442
#	163154
#	178651
#	190033
#	209149
#	223229
#
# Disc length: 3247 seconds
# Revision: 0
# Processed by: cddbd v1.5.2PL0 Copyright (c) Steve Scherf et al.
# Submitted via: dBpowerAMP V12.0
#
DISCID=f10cad10
DTITLE=Fiona Boyes - Professin' The Blues
DYEAR=2016
DGENRE=Blues
TTITLE0=I Can't Stay Here No More
TTITLE1=Devil You Know
TTITLE2=Lay Down With Dogs
TTITLE3=Angels and Boats
TTITLE4=One Rule for You
TTITLE5=Card Sharp
TTITLE6=Old and Stiff
TTITLE7=Kiss Me Darling
TTITLE8=Love Me All the Way
TTITLE9=Stubborn Old Mule
TTITLE10=Catfish Fiesta
TTITLE11=If I Should Die
TTITLE12=At the Crossroads
TTITLE13=Love Changing Blues
TTITLE14=Baby Please Don't Go
TTITLE15=Face In the Mirror
EXTD=
EXTT0=
EXTT1=
EXTT2=
EXTT3=
EXTT4=
EXTT5=
EXTT6=
EXTT7=
EXTT8=
EXTT9=
EXTT10=
EXTT11=
EXTT12=
EXTT13=
EXTT14=
EXTT15=
PLAYORDER=
